<svg xmlns="http://www.w3.org/2000/svg" width="250" height="128" fill="none" viewBox="0 60 250 128">
  <path d="M176.8 83.05h-7.83c-.75 0-1.12.46-1.12 1.16v29.62h-.55c-4.1-6.14-10.52-9.52-19.98-9.52-15.6 0-27.85 12.17-27.85 27.04 0 14.86 11.2 27.53 27.49 27.53 9.09 0 15.89-4.06 20.43-10.02h.46v7.67c0 .78.46 1.15 1.12 1.15h7.83c.83 0 1.11-.46 1.11-1.25V84.21c0-.8-.46-1.16-1.11-1.16Zm-28.74 66.59c-11.2 0-18.76-8.38-18.76-18.38 0-10.37 7.56-17.87 18.76-17.87 10.75 0 19.6 7.85 19.6 18.05 0 10.63-8.67 18.2-19.6 18.2Z" fill="#111111"/>
  <path d="M246.3 105.4h-7.92c-.65 0-1.11.46-1.11 1.15v7.16h-.37c-4.53-5.69-10.11-9.43-21.9-9.43-14.82 0-28.05 11.53-28.05 27.22 0 14.6 11.52 27.35 27.87 27.35 9.28 0 16.17-3.97 21.81-10.11h.46v7.85c0 .69.55 1.06 1.11 1.06h8.1c.83 0 1.19-.46 1.19-1.25v-49.84c0-.79-.46-1.16-1.19-1.16Zm-29.93 44.3c-11.1 0-19.2-8.2-19.2-18.02 0-10.73 8.1-18.48 19.11-18.48 11.2 0 20.81 8.38 20.81 18.39 0 10.36-9.34 18.11-20.72 18.11Z" fill="#111111"/>
  <path d="M84.15 104c-11.11 0-17.91 4.62-22.9 10.31-2.67 3.13-8.48 2.86-11.16.88-2.32-2.11-3.67-2.75-6.61-2.75-6.14 0-10.25 4.83-10.25 8.93 0 5.5 4.01 9.25 9.4 8.7 5.14-.89 10.32-.34 13.63 8.84 2.86 9.82 13.52 19.83 27.8 19.83 15.78 0 29.37-11.71 29.37-27.52 0-15.43-11.7-27.22-29.28-27.22Zm-.18 45.69c-10.93 0-18.95-8.38-18.95-18.11 0-10.64 8.67-18.31 18.86-18.31 11.11 0 19.04 8.84 19.04 18.04 0 10.45-8.29 18.38-18.95 18.38Z" fill="#111111"/>
  <path d="M46.42 69.74c-9.45 0-16.07 8.29-16.07 15.44 0 2.3.27 3.12.27 4.62 0 11.35-9.64 23.52-19.65 25.11-5.49.83-7.97 6.7-7.97 9.9 0 6.1 4.44 10.25 8.97 10.62 10.85.92 21.52 14.12 21.25 28.98-.65 8.65 6.6 14.25 13.75 14.25 8.67 0 13.66-7.39 13.66-12.31 0-8.11-5.82-13.7-12.97-14.16-9.44 0-23.92-13.15-23.92-27.47 0-12.66 10.12-23.48 22.69-23.48 9.35 0 14.48-8.73 14.3-15.33-.37-8.29-7.35-16.17-14.31-16.17Z" fill="#111111"/>
</svg>
